# xmcd
#
# Track frame offsets:
#	150
#	26717
#	40464
#	54167
#	70393
#	88627
#	106225
#	126014
#	143819
#	160263
#	175134
#	197050
#	215947
#	230455
#	247808
#	265617
#	288030
#
# Disc length: 4362 seconds
#
# Revision: 1
# Processed by: cddbd v1.5.2PL0 Copyright (c) Steve Scherf et al.
# Submitted via: audiograbber 1.83.01
#
DISCID=ee110811
DTITLE=Pe. Alessandro Campos  - - Quando Deus Quer Ninguém Segura
DYEAR=1900
DGENRE=
TTITLE0=Um Certo Galileu
TTITLE1=O Que é Que Eu Sou Sem Jesus
TTITLE2=Padroeira Sertaneja
TTITLE3=Maria
TTITLE4=O Homem Decepciona, Jesus Cristo Jamais
TTITLE5=Dia De Formatura
TTITLE6=Deus Está Aqui
TTITLE7=O último Julgamento
TTITLE8=Quem Vai Mandar No Mundo é A Mulher
TTITLE9=Moreninha Linda/cana Verde
TTITLE10=Homem De Pedra/telefone Mudo/as Andorinhas
TTITLE11=Majestade O Sabiá
TTITLE12=Amor De Primavera
TTITLE13=Rédeas Do Possante
TTITLE14=Filho Pródigo
TTITLE15=Amar Como Jesus Amou
TTITLE16=Salmo 22
EXTD=
EXTT0=
EXTT1=
EXTT2=
EXTT3=
EXTT4=
EXTT5=
EXTT6=
EXTT7=
EXTT8=
EXTT9=
EXTT10=
EXTT11=
EXTT12=
EXTT13=
EXTT14=
EXTT15=
EXTT16=
PLAYORDER=
